<?xml version="1.0" encoding="UTF-8"?>
<svg xmlns="http://www.w3.org/2000/svg" xmlns:xlink="http://www.w3.org/1999/xlink" width="30px" height="20px" viewBox="0 0 30 20" version="1.1">
<g id="surface1">
<path style=" stroke:none;fill-rule:nonzero;fill:rgb(100%,100%,100%);fill-opacity:1;" d="M 0.015625 0 L 29.984375 0 L 29.984375 20 L 0.015625 20 Z M 0.015625 0 "/>
<path style=" stroke:none;fill-rule:nonzero;fill:rgb(84.705882%,0%,15.294118%);fill-opacity:1;" d="M 16.875 0 L 13.125 0 L 13.125 8.125 L 0.015625 8.125 L 0.015625 11.875 L 13.125 11.875 L 13.125 20 L 16.875 20 L 16.875 11.875 L 29.984375 11.875 L 29.984375 8.125 L 16.875 8.125 Z M 16.875 0 "/>
<path style=" stroke:none;fill-rule:nonzero;fill:rgb(0%,32.156863%,70.588235%);fill-opacity:1;" d="M 23.066406 13.476562 L 29.984375 17.328125 L 29.984375 13.476562 Z M 23.066406 13.476562 "/>
<path style=" stroke:none;fill-rule:nonzero;fill:rgb(0%,32.156863%,70.588235%);fill-opacity:1;" d="M 18.257812 13.476562 L 29.984375 20 L 29.984375 18.15625 L 21.574219 13.476562 Z M 18.257812 13.476562 "/>
<path style=" stroke:none;fill-rule:nonzero;fill:rgb(0%,32.156863%,70.588235%);fill-opacity:1;" d="M 26.863281 20 L 18.257812 15.214844 L 18.257812 20 Z M 26.863281 20 "/>
<path style=" stroke:none;fill-rule:nonzero;fill:rgb(100%,100%,100%);fill-opacity:1;" d="M 18.257812 13.476562 L 29.984375 20 L 29.984375 18.15625 L 21.574219 13.476562 Z M 18.257812 13.476562 "/>
<path style=" stroke:none;fill-rule:nonzero;fill:rgb(84.705882%,0%,15.294118%);fill-opacity:1;" d="M 18.257812 13.476562 L 29.984375 20 L 29.984375 18.15625 L 21.574219 13.476562 Z M 18.257812 13.476562 "/>
<path style=" stroke:none;fill-rule:nonzero;fill:rgb(0%,32.156863%,70.588235%);fill-opacity:1;" d="M 5.304688 13.476562 L 0.015625 16.417969 L 0.015625 13.476562 Z M 5.304688 13.476562 "/>
<path style=" stroke:none;fill-rule:nonzero;fill:rgb(0%,32.156863%,70.588235%);fill-opacity:1;" d="M 11.742188 14.308594 L 11.742188 20 L 1.507812 20 Z M 11.742188 14.308594 "/>
<path style=" stroke:none;fill-rule:nonzero;fill:rgb(84.705882%,0%,15.294118%);fill-opacity:1;" d="M 8.425781 13.476562 L 0.015625 18.15625 L 0.015625 20 L 11.742188 13.476562 Z M 8.425781 13.476562 "/>
<path style=" stroke:none;fill-rule:nonzero;fill:rgb(0%,32.156863%,70.588235%);fill-opacity:1;" d="M 6.933594 6.523438 L 0.015625 2.671875 L 0.015625 6.523438 Z M 6.933594 6.523438 "/>
<path style=" stroke:none;fill-rule:nonzero;fill:rgb(0%,32.156863%,70.588235%);fill-opacity:1;" d="M 11.742188 6.523438 L 0.015625 0 L 0.015625 1.84375 L 8.425781 6.523438 Z M 11.742188 6.523438 "/>
<path style=" stroke:none;fill-rule:nonzero;fill:rgb(0%,32.156863%,70.588235%);fill-opacity:1;" d="M 3.136719 0 L 11.742188 4.785156 L 11.742188 0 Z M 3.136719 0 "/>
<path style=" stroke:none;fill-rule:nonzero;fill:rgb(100%,100%,100%);fill-opacity:1;" d="M 11.742188 6.523438 L 0.015625 0 L 0.015625 1.84375 L 8.425781 6.523438 Z M 11.742188 6.523438 "/>
<path style=" stroke:none;fill-rule:nonzero;fill:rgb(84.705882%,0%,15.294118%);fill-opacity:1;" d="M 11.742188 6.523438 L 0.015625 0 L 0.015625 1.84375 L 8.425781 6.523438 Z M 11.742188 6.523438 "/>
<path style=" stroke:none;fill-rule:nonzero;fill:rgb(0%,32.156863%,70.588235%);fill-opacity:1;" d="M 24.695312 6.523438 L 29.984375 3.582031 L 29.984375 6.523438 Z M 24.695312 6.523438 "/>
<path style=" stroke:none;fill-rule:nonzero;fill:rgb(0%,32.156863%,70.588235%);fill-opacity:1;" d="M 18.257812 5.691406 L 18.257812 0 L 28.492188 0 Z M 18.257812 5.691406 "/>
<path style=" stroke:none;fill-rule:nonzero;fill:rgb(84.705882%,0%,15.294118%);fill-opacity:1;" d="M 21.574219 6.523438 L 29.984375 1.84375 L 29.984375 0 L 18.257812 6.523438 Z M 21.574219 6.523438 "/>
</g>
</svg>
